<svg preserveAspectRatio="none" width="100%" height="100%" overflow="visible" style="display: block;" viewBox="0 0 128.4 128.4" fill="none" xmlns="http://www.w3.org/2000/svg">
<g id="_&#208;&#161;&#208;&#187;&#208;&#190;&#208;&#185;_1" clip-path="url(#clip0_0_132)">
<path id="Vector" d="M64.2 128.4C28.8 128.4 0 99.6 0 64.2C0 28.8 28.8 0 64.2 0C99.6 0 128.4 28.8 128.4 64.2C128.4 99.6 99.6 128.4 64.2 128.4ZM64.2 0.7C29.2 0.7 0.8 29.2 0.8 64.1C0.8 99 29.3 127.5 64.2 127.5C99.1 127.5 127.6 99 127.6 64.1C127.7 29.2 99.2 0.7 64.2 0.7Z" fill="var(--fill-0, white)"/>
<path id="Vector_2" d="M33.7 64.13L27.9 49.23H25.1L19.3 64.13H21.4C21.6 64.13 21.8 64.03 22 63.93C22.2 63.83 22.3 63.63 22.3 63.53L23.4 60.53H29.6L30.7 63.53C30.8 63.73 30.9 63.83 31 63.93C31.2 64.03 31.4 64.13 31.6 64.13H33.7ZM24.1 58.53L25.9 53.63C26 53.43 26.1 53.13 26.2 52.83C26.3 52.53 26.4 52.23 26.5 51.83C26.6 52.13 26.7 52.53 26.8 52.83C26.9 53.13 27 53.43 27.1 53.63L28.9 58.53H24.1Z" fill="var(--fill-0, white)"/>
<path id="Vector_3" d="M43.9 64.03C44.1 64.13 44.3 64.13 44.5 64.13H47L43.3 58.63C43 58.23 42.7 57.93 42.4 57.73C42.9 57.53 43.4 57.33 43.8 57.03C44.2 56.73 44.6 56.43 44.8 56.03C45.1 55.63 45.3 55.23 45.4 54.83C45.5 54.43 45.6 53.93 45.6 53.43C45.6 52.83 45.5 52.23 45.3 51.73C45.1 51.23 44.7 50.73 44.3 50.33C43.8 49.93 43.2 49.63 42.5 49.43C41.8 49.23 40.9 49.13 39.9 49.13H35.4V64.03H38.2V58.23H39.4C39.7 58.23 39.9 58.23 40 58.33C40.1 58.43 40.3 58.53 40.4 58.73L43.5 63.53C43.6 63.83 43.7 63.93 43.9 64.03ZM41.2 56.13C40.8 56.23 40.4 56.33 39.8 56.33H38.1V51.43H39.9C40.9 51.43 41.7 51.63 42.2 52.03C42.7 52.43 42.9 53.03 42.9 53.73C42.9 54.13 42.8 54.43 42.7 54.73C42.6 55.03 42.4 55.33 42.1 55.53C41.9 55.83 41.6 56.03 41.2 56.13Z" fill="var(--fill-0, white)"/>
<path id="Vector_4" d="M58.6 49.33H46.9V51.53H51.4V64.13H54.2V51.53H58.6V49.33Z" fill="var(--fill-0, white)"/>
<path id="Vector_5" d="M22.2 68.93H19.8V79.43H20.2V75.03H22.2C22.7 75.03 23.2 74.93 23.6 74.83C24 74.63 24.4 74.43 24.7 74.23C25 73.93 25.3 73.63 25.4 73.23C25.6 72.83 25.7 72.43 25.7 72.03C25.7 71.03 25.4 70.23 24.8 69.73C24.2 69.23 23.3 68.93 22.2 68.93ZM20.2 69.33H22.2C23.3 69.33 24.1 69.53 24.6 70.03C25.1 70.43 25.4 71.13 25.4 72.03C25.4 72.43 25.3 72.73 25.2 73.03C25.1 73.33 24.8 73.63 24.6 73.83C24.3 74.03 24 74.23 23.6 74.43C23.2 74.53 22.8 74.63 22.3 74.63H20.3L20.2 69.33Z" fill="var(--fill-0, white)"/>
<path id="Vector_6" d="M20.3 79.53H19.6V68.83H22.2C23.4 68.83 24.3 69.13 24.9 69.63C25.6 70.13 25.9 70.93 25.9 72.03C25.9 72.53 25.8 72.93 25.6 73.33C25.4 73.73 25.2 74.03 24.8 74.33C24.5 74.63 24.1 74.83 23.6 75.03C23.2 75.23 22.7 75.23 22.1 75.23H20.2V79.53H20.3ZM19.9 79.33H20.1V74.93H22.2C22.7 74.93 23.2 74.83 23.6 74.73C24 74.63 24.4 74.33 24.7 74.13C25 73.83 25.2 73.53 25.4 73.23C25.6 72.83 25.7 72.43 25.7 72.03C25.7 71.03 25.4 70.33 24.8 69.83C24.2 69.33 23.3 69.13 22.2 69.13H19.9V79.33ZM22.2 74.83H20.1V69.23H22.2C23.3 69.23 24.1 69.43 24.7 69.93C25.2 70.43 25.5 71.13 25.5 72.03C25.5 72.43 25.4 72.73 25.3 73.13C25.1 73.43 24.9 73.73 24.6 74.03C24.3 74.23 24 74.43 23.6 74.63C23.1 74.73 22.7 74.83 22.2 74.83ZM20.3 74.53H22.2C22.7 74.53 23.1 74.43 23.5 74.33C23.9 74.23 24.2 74.03 24.5 73.83C24.8 73.63 25 73.33 25.1 73.03C25.2 72.73 25.3 72.43 25.3 72.03C25.3 71.23 25.1 70.53 24.6 70.13C24.1 69.73 23.3 69.53 22.3 69.53H20.4V74.53H20.3Z" fill="var(--fill-0, white)"/>
<path id="Vector_7" d="M35.1 74.33C35.5 74.23 35.9 74.03 36.2 73.73C36.5 73.53 36.7 73.23 36.9 72.83C37.1 72.53 37.2 72.13 37.2 71.63C37.2 70.73 36.9 70.03 36.3 69.63C35.7 69.23 34.9 69.03 33.8 69.03H31.3V79.53H31.7V74.63H33.5C33.5 74.63 33.6 74.63 33.6 74.73L33.7 74.83L37.5 79.43C37.5667 79.4967 37.6333 79.53 37.7 79.53H38.2L34 74.53C34.5 74.43 34.8 74.43 35.1 74.33ZM31.7 69.33H33.8C34.8 69.33 35.5 69.53 36.1 69.93C36.6 70.33 36.9 70.83 36.9 71.63C36.9 72.03 36.8 72.33 36.7 72.63C36.6 72.93 36.3 73.23 36.1 73.43C35.9 73.63 35.5 73.83 35.1 73.93C34.7 74.03 34.3 74.13 33.8 74.13H31.9L31.7 69.33Z" fill="var(--fill-0, white)"/>
<path id="Vector_8" d="M31.8 79.53H31.1V68.83H33.7C34.8 68.83 35.7 69.03 36.3 69.53C36.9 70.03 37.3 70.73 37.3 71.63C37.3 72.13 37.2 72.53 37 72.83C36.8 73.23 36.6 73.53 36.3 73.73C36 74.03 35.6 74.23 35.2 74.33C34.9 74.43 34.7 74.43 34.4 74.53L38.6 79.53H37.7C37.6 79.53 37.5 79.43 37.5 79.33L33.7 74.73L33.6 74.63H31.9V79.53H31.8ZM31.4 79.33H31.6V74.43H33.6C33.7 74.43 33.7 74.53 33.7 74.53L33.8 74.63L37.6 79.23L37.7 79.33H37.9L33.8 74.43H34C34.4 74.43 34.7 74.33 35 74.23C35.4 74.13 35.8 73.93 36.1 73.73C36.4 73.53 36.6 73.23 36.8 72.83C37 72.53 37 72.13 37 71.73C37 70.83 36.7 70.23 36.1 69.83C35.5 69.43 34.7 69.23 33.6 69.23H31.2V79.33H31.4ZM33.6 74.23H31.5V69.23H33.7C34.7 69.23 35.5 69.43 36 69.83C36.5 70.23 36.8 70.83 36.8 71.63C36.8 72.03 36.7 72.43 36.6 72.73C36.4 73.03 36.2 73.33 35.9 73.53C35.6 73.73 35.3 73.93 34.9 74.03C34.6 74.13 34.1 74.23 33.6 74.23ZM31.8 74.03H33.6C34.1 74.03 34.5 73.93 34.9 73.83C35.3 73.73 35.6 73.53 35.8 73.33C36.1 73.13 36.3 72.93 36.4 72.63C36.5 72.33 36.6 72.03 36.6 71.63C36.6 70.83 36.4 70.33 35.9 70.03C35.4 69.63 34.7 69.53 33.7 69.53H31.8V74.03Z" fill="var(--fill-0, white)"/>
<path id="Vector_9" d="M50.5 70.33C50.1 69.83 49.6 69.53 49 69.23C48.4 69.03 47.7 68.83 47 68.83C46.3 68.83 45.6 68.93 45 69.23C44.4 69.43 43.9 69.83 43.5 70.33C43.1 70.83 42.7 71.33 42.5 72.03C42.3 72.73 42.1 73.43 42.1 74.23C42.1 75.03 42.2 75.83 42.5 76.43C42.7 77.13 43.1 77.63 43.5 78.13C43.9 78.63 44.4 78.93 45 79.23C45.6 79.43 46.2 79.63 47 79.63C47.7 79.63 48.4 79.53 49 79.23C49.6 79.03 50.1 78.63 50.5 78.13C50.9 77.63 51.3 77.13 51.5 76.43C51.7 75.73 51.9 75.03 51.9 74.23C51.9 73.43 51.8 72.63 51.5 72.03C51.3 71.33 50.9 70.73 50.5 70.33ZM47 69.23C47.7 69.23 48.3 69.33 48.8 69.53C49.3 69.73 49.8 70.13 50.2 70.53C50.6 70.93 50.9 71.43 51.1 72.13C51.3 72.73 51.4 73.43 51.4 74.23C51.4 75.03 51.3 75.73 51.1 76.33C50.9 76.93 50.6 77.43 50.2 77.83C49.8 78.23 49.3 78.53 48.8 78.83C48.3 79.03 47.7 79.13 47 79.13C46.4 79.13 45.8 79.03 45.2 78.83C44.7 78.63 44.2 78.33 43.8 77.83C43.4 77.43 43.1 76.93 42.9 76.33C42.7 75.73 42.6 75.03 42.6 74.23C42.6 73.43 42.7 72.73 42.9 72.13C43.1 71.53 43.4 71.03 43.8 70.53C44.2 70.13 44.7 69.83 45.2 69.53C45.8 69.33 46.4 69.23 47 69.23Z" fill="var(--fill-0, white)"/>
<path id="Vector_10" d="M47 79.63C46.3 79.63 45.6 79.53 45 79.23C44.4 78.93 43.9 78.63 43.4 78.13C43 77.63 42.6 77.13 42.4 76.43C42.2 75.73 42 75.03 42 74.13C42 73.33 42.1 72.53 42.4 71.83C42.6 71.13 43 70.53 43.4 70.13C43.8 69.63 44.4 69.23 45 69.03C45.6 68.73 46.3 68.63 47 68.63C47.7 68.63 48.4 68.73 49 69.03C49.6 69.33 50.1 69.63 50.6 70.13C51 70.63 51.4 71.23 51.6 71.83C51.8 72.53 52 73.23 52 74.13C52 74.93 51.9 75.73 51.6 76.43C51.4 77.13 51 77.73 50.6 78.13C50.2 78.63 49.6 78.93 49 79.23C48.4 79.53 47.7 79.63 47 79.63ZM47 68.93C46.3 68.93 45.7 69.03 45.1 69.33C44.5 69.53 44 69.93 43.6 70.33C43.2 70.83 42.9 71.33 42.6 71.93C42.4 72.53 42.3 73.33 42.3 74.13C42.3 74.93 42.4 75.63 42.6 76.33C42.8 76.93 43.2 77.53 43.6 77.93C44 78.33 44.5 78.73 45.1 78.93C45.7 79.13 46.3 79.33 47 79.33C47.7 79.33 48.3 79.23 48.9 78.93C49.5 78.73 50 78.33 50.4 77.93C50.8 77.53 51.1 76.93 51.4 76.33C51.6 75.73 51.7 74.93 51.7 74.13C51.7 73.33 51.6 72.63 51.4 71.93C51.2 71.33 50.8 70.73 50.4 70.33C50 69.93 49.5 69.53 48.9 69.33C48.4 69.13 47.7 68.93 47 68.93ZM47 79.23C46.3 79.23 45.7 79.13 45.2 78.93C44.6 78.73 44.2 78.33 43.8 77.93C43.4 77.53 43.1 76.93 42.9 76.33C42.7 75.73 42.6 75.03 42.6 74.23C42.6 73.43 42.7 72.73 42.9 72.13C43.1 71.53 43.4 70.93 43.8 70.53C44.2 70.13 44.7 69.73 45.2 69.53C45.8 69.33 46.4 69.23 47 69.23C47.7 69.23 48.3 69.33 48.8 69.53C49.4 69.73 49.8 70.13 50.2 70.53C50.6 70.93 50.9 71.53 51.1 72.13C51.3 72.73 51.4 73.43 51.4 74.23C51.4 75.03 51.3 75.73 51.1 76.33C50.9 76.93 50.6 77.53 50.2 77.93C49.8 78.33 49.3 78.73 48.8 78.93C48.3 79.13 47.7 79.23 47 79.23ZM47 69.33C46.4 69.33 45.8 69.43 45.3 69.63C44.8 69.83 44.3 70.13 44 70.53C43.6 70.93 43.3 71.43 43.1 72.03C42.9 72.63 42.8 73.33 42.8 74.03C42.8 74.83 42.9 75.53 43.1 76.03C43.3 76.63 43.6 77.13 44 77.53C44.4 77.93 44.8 78.23 45.3 78.43C45.8 78.63 46.4 78.73 47 78.73C47.6 78.73 48.2 78.63 48.7 78.43C49.2 78.23 49.7 77.93 50 77.53C50.4 77.13 50.7 76.63 50.9 76.03C51.1 75.43 51.2 74.73 51.2 74.03C51.2 73.23 51.1 72.63 50.9 72.03C50.7 71.43 50.4 70.93 50 70.53C49.6 70.13 49.2 69.83 48.7 69.63C48.2 69.53 47.6 69.33 47 69.33Z" fill="var(--fill-0, white)"/>
<path id="Vector_11" d="M60.6 76.03C60.6 76.53 60.5 77.03 60.4 77.43C60.3 77.83 60.1 78.13 59.9 78.43C59.7 78.73 59.4 78.93 59.1 79.03C58.8 79.13 58.4 79.23 58 79.23H57.6C57.5 79.23 57.4 79.23 57.3 79.13C57.2 79.13 57.1 79.13 57.1 79.03H56.9C56.9 79.03 56.7 79.03 56.7 79.23L56.6 79.43H56.7C57.2 79.63 57.6 79.63 58 79.63C58.4 79.63 58.9 79.53 59.2 79.43C59.6 79.33 59.9 79.03 60.2 78.73C60.5 78.43 60.7 78.03 60.8 77.63C60.9 77.23 61 76.63 61 76.13V69.03H60.6V76.03Z" fill="var(--fill-0, white)"/>
<path id="Vector_12" d="M58 79.73C57.6 79.73 57.1 79.63 56.7 79.53L56.5 79.43L56.6 79.13C56.7 78.93 56.9 78.93 56.9 78.93H57.1C57.1667 78.93 57.2333 78.9633 57.3 79.03C57.4 79.03 57.5 79.03 57.6 79.13H58C58.4 79.13 58.7 79.03 59 78.93C59.3 78.83 59.6 78.63 59.8 78.43C60 78.23 60.2 77.83 60.3 77.53C60.4 77.13 60.5 76.73 60.5 76.13V68.93H61.2V76.13C61.2 76.73 61.1 77.23 61 77.73C60.8 78.23 60.6 78.53 60.4 78.93C60.1 79.23 59.8 79.53 59.4 79.63C58.9 79.63 58.4 79.73 58 79.73ZM56.7 79.23C57.6 79.53 58.4 79.53 59.1 79.23C59.5 79.13 59.8 78.83 60 78.63C60.3 78.33 60.5 78.03 60.6 77.53C60.7 77.13 60.8 76.63 60.8 76.03V69.13H60.6V76.03C60.6 76.53 60.5 77.03 60.4 77.43C60.3 77.83 60.1 78.23 59.9 78.43C59.7 78.73 59.4 78.93 59 79.03C58.7 79.13 58.3 79.23 57.9 79.23H57.5C57.4 79.23 57.3 79.23 57.2 79.13C57.1 79.13 57 79.03 56.9 79.03H56.7C56.7667 79.0967 56.7667 79.1633 56.7 79.23Z" fill="var(--fill-0, white)"/>
<path id="Vector_13" d="M67.8 74.33H72.7V73.93H67.8V69.43H73.6V68.93H67.3V79.43H73.6V79.03H67.8V74.33Z" fill="var(--fill-0, white)"/>
<path id="Vector_14" d="M73.7 79.53H67.2V68.83H73.7V69.53H67.9V73.83H72.8V74.53H67.9V78.93H73.7V79.53ZM67.5 79.33H73.5V79.13H67.7V74.23H72.6V74.03H67.7V69.23H73.5V69.03H67.5V79.33Z" fill="var(--fill-0, white)"/>
<path id="Vector_15" d="M86.9 77.83C86.8 77.83 86.8 77.93 86.8 77.93C86.6 78.13 86.3 78.33 86.1 78.43C85.9 78.63 85.6 78.73 85.4 78.83C85.1 78.93 84.8 79.03 84.5 79.03C84.2 79.13 83.8 79.13 83.4 79.13C82.8 79.13 82.2 79.03 81.6 78.83C81.1 78.63 80.6 78.23 80.2 77.83C79.8 77.43 79.5 76.93 79.3 76.23C79.1 75.63 79 74.93 79 74.13C79 73.33 79.1 72.63 79.3 72.03C79.5 71.43 79.8 70.93 80.2 70.43C80.6 70.03 81.1 69.63 81.6 69.43C82.2 69.23 82.8 69.13 83.5 69.13C83.9 69.13 84.2 69.13 84.5 69.23C84.8 69.33 85 69.33 85.3 69.43L85.9 69.73C86.1 69.83 86.2 69.93 86.3 70.03C86.4 70.13 86.5 70.13 86.6 70.23C86.8 70.33 86.9 70.43 87 70.23L87.1 70.13L87 70.03C86.8 69.83 86.5 69.63 86.3 69.53C86.1 69.33 85.8 69.23 85.5 69.13C85.2 69.03 84.9 68.93 84.6 68.93C84.3 68.83 84 68.83 83.6 68.83C82.9 68.83 82.2 68.93 81.6 69.23C81 69.53 80.4 69.83 80 70.33C79.6 70.83 79.2 71.33 79 72.03C78.8 72.73 78.6 73.43 78.6 74.23C78.6 75.03 78.7 75.83 79 76.43C79.2 77.13 79.6 77.63 80 78.13C80.4 78.63 81 78.93 81.5 79.23C82.1 79.43 82.7 79.63 83.5 79.63C83.9 79.63 84.3 79.63 84.7 79.53C85.1 79.43 85.4 79.33 85.7 79.23C86 79.13 86.3 78.93 86.5 78.73C86.7 78.53 87 78.33 87.2 78.13L87.3 78.03L87.1 77.93C87.0333 77.8633 86.9667 77.83 86.9 77.83Z" fill="var(--fill-0, white)"/>
<path id="Vector_16" d="M83.4 79.73C82.7 79.73 82 79.63 81.4 79.33C80.8 79.03 80.3 78.73 79.8 78.23C79.4 77.73 79 77.13 78.8 76.53C78.6 75.83 78.4 75.13 78.4 74.23C78.4 73.43 78.5 72.63 78.8 72.03C79 71.33 79.4 70.73 79.9 70.33C80.4 69.83 80.9 69.43 81.5 69.23C82.1 68.93 82.8 68.83 83.6 68.83C84 68.83 84.3 68.83 84.6 68.93C84.9 69.03 85.2 69.03 85.5 69.13C85.8 69.23 86 69.33 86.3 69.53C86.5 69.73 86.8 69.83 87 70.03L87.2 70.13L87.1 70.33C87 70.43 86.9 70.53 86.8 70.53C86.7 70.53 86.5 70.43 86.5 70.43C86.4333 70.3633 86.3333 70.2967 86.2 70.23C86.1 70.13 86 70.03 85.8 69.93C85.6 69.83 85.5 69.73 85.3 69.63C85.1 69.53 84.8 69.53 84.6 69.43C84.3 69.33 84 69.33 83.6 69.33C82.9 69.33 82.3 69.43 81.8 69.63C81.3 69.83 80.8 70.13 80.4 70.63C80 71.03 79.7 71.53 79.5 72.13C79.3 72.73 79.2 73.43 79.2 74.13C79.2 74.93 79.3 75.53 79.5 76.13C79.7 76.73 80 77.23 80.4 77.63C80.8 78.03 81.2 78.33 81.8 78.53C82.3 78.73 82.9 78.83 83.5 78.83C83.9 78.83 84.3 78.83 84.6 78.73C84.9 78.63 85.2 78.63 85.4 78.53C85.7 78.43 85.9 78.33 86.1 78.13C86.3 77.93 86.6 77.83 86.8 77.63C86.8 77.53 86.9 77.53 87 77.53C87.1 77.53 87.2 77.53 87.2 77.63L87.5 77.83L87.3 78.03C87.1 78.23 86.9 78.43 86.6 78.63C86.3 78.83 86 78.93 85.7 79.13C85.4 79.23 85.1 79.33 84.7 79.43C84.3 79.63 83.9 79.73 83.4 79.73ZM83.6 69.03C82.9 69.03 82.2 69.13 81.6 69.43C81 69.73 80.5 70.03 80 70.53C79.6 71.03 79.2 71.53 79 72.23C78.8 72.83 78.6 73.63 78.6 74.33C78.6 75.13 78.7 75.83 79 76.53C79.2 77.13 79.6 77.73 80 78.13C80.4 78.63 80.9 78.93 81.5 79.13C82.1 79.33 82.7 79.53 83.4 79.53C83.8 79.53 84.2 79.53 84.6 79.43C84.9 79.33 85.3 79.23 85.6 79.13C85.9 79.03 86.2 78.83 86.4 78.73C86.7 78.53 86.9 78.33 87.1 78.13L87 78.03H86.9C86.7 78.23 86.4 78.43 86.2 78.63C86 78.83 85.7 78.93 85.4 79.03C85.1 79.13 84.8 79.23 84.5 79.33C84.2 79.43 83.8 79.43 83.4 79.43C82.8 79.43 82.1 79.33 81.6 79.13C81 78.93 80.6 78.53 80.2 78.13C79.8 77.73 79.5 77.13 79.2 76.53C79 75.93 78.9 75.13 78.9 74.43C78.9 73.63 79 72.93 79.3 72.33C79.5 71.73 79.9 71.13 80.3 70.73C80.7 70.33 81.2 69.93 81.8 69.73C82.4 69.53 83 69.33 83.7 69.33C84.1 69.33 84.4 69.33 84.7 69.43C85 69.53 85.3 69.53 85.5 69.63L86.1 69.93C86.2 70.03 86.4 70.13 86.5 70.23C86.6 70.33 86.7 70.43 86.8 70.43C86.8667 70.4967 86.9333 70.53 87 70.53L87.1 70.43C86.9 70.23 86.6 70.03 86.4 69.93C86.2 69.83 85.9 69.63 85.7 69.53C85.5 69.43 85.2 69.33 84.9 69.33C84.3 69.03 84 69.03 83.6 69.03Z" fill="var(--fill-0, white)"/>
<path id="Vector_17" d="M91.3 69.43H95.2V79.43H95.6V69.43H99.4V68.93H91.3V69.43Z" fill="var(--fill-0, white)"/>
<path id="Vector_18" d="M95.7 79.53H95V69.43H91.1V68.73H99.5V69.43H95.7V79.53ZM95.3 79.33H95.5V69.23H99.3V69.03H91.4V69.23H95.3V79.33Z" fill="var(--fill-0, white)"/>
<path id="Vector_19" d="M108.7 74.63C108.4 74.43 108.1 74.23 107.8 74.13C107.5 74.03 107.1 73.93 106.8 73.83C106.5 73.73 106.1 73.63 105.8 73.53C105.5 73.43 105.2 73.23 105 73.13C104.8 72.93 104.6 72.73 104.4 72.53C104.3 72.33 104.2 71.93 104.2 71.63C104.2 71.33 104.3 71.03 104.4 70.83C104.5 70.53 104.7 70.33 104.9 70.13C105.1 69.93 105.4 69.73 105.7 69.63C106 69.53 106.4 69.43 106.8 69.43C107.2 69.43 107.5 69.43 107.8 69.53C108.1 69.63 108.3 69.73 108.4 69.83C108.6 69.93 108.7 70.03 108.8 70.13C108.9 70.23 109 70.33 109.1 70.33C109.1 70.33 109.2 70.33 109.3 70.23L109.4 70.13L109.3 70.03C109 69.63 108.6 69.43 108.2 69.23C107.8 69.03 107.3 68.93 106.8 68.93C106.3 68.93 105.9 69.03 105.6 69.13C105.2 69.23 104.9 69.43 104.7 69.73C104.5 69.93 104.3 70.23 104.1 70.53C104 70.83 103.9 71.13 103.9 71.53C103.9 71.83 104 72.23 104.1 72.43C104.2 72.63 104.4 72.93 104.5 73.13C104.7 73.33 104.9 73.43 105.1 73.63C105.3 73.73 105.6 73.83 105.8 73.93C106.1 74.03 106.3 74.13 106.6 74.23C106.9 74.33 107.1 74.43 107.4 74.53C107.7 74.63 107.9 74.73 108.1 74.83C108.3 74.93 108.5 75.03 108.7 75.23C108.9 75.43 109 75.53 109.1 75.83C109.2 76.03 109.2 76.33 109.2 76.63C109.2 77.03 109.1 77.33 109 77.63C108.9 77.93 108.7 78.23 108.4 78.43C108.2 78.63 107.9 78.83 107.5 79.03C107.2 79.13 106.7 79.23 106.3 79.23C106 79.23 105.7 79.23 105.5 79.13C105.3 79.03 105 79.03 104.9 78.93C104.7 78.83 104.6 78.73 104.4 78.63C104.3 78.53 104.1 78.43 104.1 78.33C104 78.23 103.9 78.13 103.9 78.13C103.833 78.0633 103.767 78.03 103.7 78.03H103.5L103.4 78.13L103.5 78.23C103.7 78.43 103.9 78.63 104.1 78.83C104.3 79.03 104.5 79.13 104.8 79.23C105 79.33 105.3 79.43 105.6 79.53C105.9 79.63 106.2 79.63 106.6 79.63C107.1 79.63 107.6 79.53 108 79.43C108.4 79.23 108.7 79.03 109 78.73C109.3 78.43 109.5 78.13 109.6 77.73C109.7 77.33 109.8 76.93 109.8 76.53C109.8 76.13 109.7 75.73 109.6 75.43C109.2 75.03 109 74.83 108.7 74.63Z" fill="var(--fill-0, white)"/>
<path id="Vector_20" d="M106.3 79.73C105.9 79.73 105.6 79.73 105.3 79.63C105 79.53 104.7 79.43 104.5 79.33C104.2 79.23 104 79.03 103.8 78.83C103.6 78.63 103.4 78.43 103.2 78.23L103.1 78.03L103.3 77.83L103.4 77.73C103.4 77.73 103.5 77.63 103.6 77.63C103.7 77.63 103.8 77.73 103.9 77.83C103.967 77.8967 104.033 77.9633 104.1 78.03C104.2 78.13 104.3 78.23 104.4 78.33C104.5 78.43 104.7 78.53 104.9 78.63C105.1 78.73 105.3 78.83 105.5 78.83C105.7 78.93 106 78.93 106.3 78.93C106.7 78.93 107.1 78.83 107.5 78.73C107.8 78.63 108.1 78.43 108.3 78.13C108.5 77.93 108.7 77.63 108.8 77.33C108.9 77.03 109 76.73 109 76.33C109 76.03 109 75.83 108.9 75.63C108.8 75.43 108.7 75.23 108.5 75.13C108.4 75.03 108.2 74.83 108 74.73C107.8 74.63 107.6 74.53 107.3 74.43C107.1 74.33 106.8 74.23 106.5 74.13C106.2 74.03 105.9 73.93 105.7 73.83C105.4 73.73 105.2 73.63 104.9 73.53C104.7 73.43 104.4 73.23 104.2 73.03C104 72.83 103.9 72.63 103.7 72.33C103.6 72.03 103.5 71.73 103.5 71.33C103.5 70.93 103.6 70.63 103.7 70.33C103.8 70.03 104 69.73 104.3 69.43C104.6 69.13 104.9 68.93 105.3 68.83C105.7 68.73 106.1 68.63 106.6 68.63C107.1 68.63 107.6 68.73 108 68.93C108.4 69.13 108.8 69.43 109.2 69.73L109.3 69.83L109.2 70.03C109.1 70.13 109 70.13 108.9 70.13C108.8 70.13 108.7 70.03 108.5 69.93C108.4 69.83 108.3 69.73 108.2 69.63C108.1 69.53 107.8 69.43 107.6 69.33C107.4 69.23 107 69.23 106.7 69.23C106.3 69.23 106 69.33 105.7 69.43C105.4 69.53 105.2 69.73 105 69.93C104.8 70.13 104.7 70.33 104.6 70.63C104.5 70.83 104.4 71.13 104.4 71.43C104.4 71.73 104.5 72.03 104.6 72.33C104.7 72.53 104.9 72.73 105.1 72.93C105.3 73.13 105.6 73.23 105.9 73.33C106.2 73.43 106.5 73.53 106.9 73.63C107.2 73.73 107.6 73.83 107.9 74.03C108.2 74.13 108.5 74.33 108.8 74.53C109.1 74.73 109.3 75.03 109.5 75.33C109.7 75.63 109.8 76.03 109.8 76.53C109.8 76.93 109.7 77.43 109.6 77.83C109.4 78.23 109.2 78.53 108.9 78.83C108.6 79.13 108.2 79.33 107.8 79.53C107.4 79.63 106.9 79.73 106.3 79.73ZM103.5 78.13C103.7 78.33 103.9 78.53 104.1 78.73C104.3 78.93 104.5 79.03 104.7 79.13C104.9 79.23 105.2 79.33 105.4 79.43C105.7 79.53 106 79.53 106.3 79.53C106.8 79.53 107.2 79.43 107.6 79.33C108 79.13 108.3 78.93 108.6 78.73C108.9 78.43 109.1 78.13 109.2 77.83C109.3 77.43 109.4 77.03 109.4 76.63C109.4 76.23 109.3 75.83 109.2 75.63C109 75.33 108.8 75.13 108.6 74.93C108.3 74.73 108.1 74.63 107.7 74.43C107.4 74.33 107.1 74.23 106.7 74.13C106.3 74.03 106 73.93 105.7 73.83C105.4 73.73 105.1 73.53 104.8 73.43C104.6 73.23 104.4 73.03 104.2 72.73C104 72.43 104 72.13 104 71.73C104 71.43 104.1 71.13 104.2 70.83C104.3 70.53 104.5 70.33 104.7 70.13C104.9 69.93 105.2 69.73 105.5 69.63C105.8 69.53 106.2 69.43 106.6 69.43C107 69.43 107.4 69.43 107.6 69.63C107.9 69.73 108.1 69.83 108.3 69.93C108.5 70.03 108.6 70.13 108.7 70.23C108.8 70.33 108.9 70.33 108.9 70.33H109C108.7 70.03 108.3 69.73 107.9 69.53C107.5 69.33 107.1 69.33 106.6 69.33C106.2 69.33 105.8 69.43 105.4 69.53C105.1 69.63 104.8 69.83 104.5 70.03C104.3 70.23 104.1 70.53 104 70.83C103.9 71.13 103.8 71.43 103.8 71.73C103.8 72.03 103.9 72.33 104 72.63C104.1 72.83 104.2 73.13 104.4 73.23C104.6 73.43 104.8 73.53 105 73.73C105.2 73.83 105.5 73.93 105.7 74.03C105.9 74.13 106.2 74.23 106.5 74.33C106.8 74.43 107.1 74.53 107.3 74.63C107.6 74.73 107.8 74.83 108 74.93C108.2 75.03 108.4 75.23 108.6 75.33C108.8 75.53 108.9 75.73 109 75.93C109.1 76.13 109.1 76.43 109.1 76.73C109.1 77.13 109 77.53 108.9 77.83C108.8 78.13 108.6 78.43 108.3 78.73C108.1 78.93 107.7 79.23 107.4 79.33C107 79.53 106.6 79.53 106.1 79.53C105.8 79.53 105.5 79.53 105.2 79.43C105 79.33 104.7 79.33 104.5 79.23C104.3 79.13 104.1 79.03 104 78.93C103.9 78.83 103.7 78.73 103.6 78.63C103.5 78.53 103.4 78.43 103.4 78.43L103.3 78.33C103.5 78.13 103.567 78.0633 103.5 78.13C103.5 78.0633 103.5 78.0633 103.5 78.13Z" fill="var(--fill-0, white)"/>
<path id="Vector_21" d="M70.1 63.63H61.8V56.83H68.8V56.33H61.8V49.73H70V49.33H61.2V64.13H70L70.1 63.63Z" fill="var(--fill-0, white)"/>
<path id="Vector_22" d="M70.1 64.23H61.1V49.13H70.1V49.83H61.9V56.13H68.9V56.83H61.9V63.43H70.2L70.1 64.23ZM61.4 64.03H69.9V63.83H61.6V56.73H68.6V56.53H61.6V49.73H69.9V49.53H61.4V64.03Z" fill="var(--fill-0, white)"/>
<path id="Vector_23" d="M82.1 64.13H82.7L76.8 57.13C76.8 57.13 76.8 57.03 76.7 57.03C77.3 57.03 77.8 56.93 78.3 56.73C78.9 56.53 79.4 56.23 79.8 55.93C80.2 55.63 80.6 55.13 80.8 54.63C81 54.13 81.2 53.63 81.2 52.93C81.2 51.63 80.8 50.63 79.9 50.03C79.1 49.43 77.9 49.13 76.3 49.13H72.9V63.93H73.4V56.93H75.8C75.9 56.93 76 56.93 76 57.03C76 57.13 76.1 57.13 76.2 57.13C76.3 57.13 76.3 57.23 76.4 57.33L81.9 63.83C82 64.03 82.1 64.13 82.1 64.13ZM73.4 49.73H76.4C77.8 49.73 78.9 50.03 79.6 50.53C80.3 51.03 80.7 51.93 80.7 53.03C80.7 53.63 80.6 54.13 80.4 54.53C80.2 54.93 79.9 55.33 79.5 55.63C79.1 55.93 78.6 56.13 78.1 56.33C77.5 56.53 76.9 56.63 76.2 56.63H73.4V49.73Z" fill="var(--fill-0, white)"/>
<path id="Vector_24" d="M83 64.23H82.1C82 64.23 81.9 64.13 81.9 64.03L76.4 57.43L76.2 57.23L76.1 57.13H73.6V64.13H72.8V49.03H76.4C78 49.03 79.2 49.33 80.1 49.93C81 50.53 81.4 51.53 81.4 52.93C81.4 53.53 81.3 54.13 81 54.63C80.8 55.13 80.4 55.53 80 55.93C79.6 56.33 79 56.53 78.4 56.73C78 56.83 77.5 56.93 77 57.03L83 64.23ZM82.2 64.03H82.5L76.8 57.23L76.7 57.13L76.5 56.93H76.8C77.4 56.93 77.9 56.83 78.3 56.63C78.9 56.43 79.4 56.23 79.8 55.83C80.2 55.53 80.5 55.13 80.8 54.63C81 54.13 81.1 53.63 81.1 53.03C81.1 51.83 80.7 50.83 79.9 50.23C79.1 49.63 77.9 49.33 76.4 49.33H73V63.93H73.3V56.93H76C76.1 56.93 76.2 56.93 76.3 57.03C76.4 57.03 76.4 57.13 76.5 57.13L76.7 57.33L82.2 63.83C82.1333 63.8967 82.1333 63.9633 82.2 64.03ZM76.2 56.73H73.3V49.63H76.4C77.8 49.63 79 49.93 79.7 50.43C80.5 50.93 80.9 51.83 80.9 53.03C80.9 53.63 80.8 54.13 80.6 54.53C80.4 55.03 80.1 55.33 79.7 55.73C79.3 56.03 78.8 56.33 78.2 56.43C77.6 56.63 76.9 56.73 76.2 56.73ZM73.5 56.53H76.2C76.9 56.53 77.5 56.43 78.1 56.33C78.6 56.13 79.1 55.93 79.5 55.63C79.9 55.33 80.2 54.93 80.4 54.53C80.6 54.13 80.7 53.63 80.7 53.13C80.7 52.03 80.3 51.23 79.6 50.73C78.9 50.23 77.8 49.93 76.4 49.93H73.5V56.53Z" fill="var(--fill-0, white)"/>
<path id="Vector_25" d="M95 64.13H95.6L89.7 57.13C89.7 57.13 89.7 57.03 89.6 57.03C90.2 57.03 90.7 56.93 91.2 56.73C91.8 56.53 92.3 56.23 92.7 55.93C93.1 55.63 93.5 55.13 93.7 54.63C93.9 54.13 94.1 53.63 94.1 52.93C94.1 51.63 93.7 50.63 92.8 50.03C92 49.43 90.8 49.13 89.2 49.13H85.7V63.93H86.2V56.93H88.6C88.7 56.93 88.8 56.93 88.8 57.03C88.9 57.03 88.9 57.13 89 57.13C89.1 57.13 89.1 57.23 89.2 57.33L94.7 63.83C94.9 64.03 95 64.13 95 64.13ZM86.3 49.73H89.3C90.7 49.73 91.8 50.03 92.5 50.53C93.2 51.03 93.6 51.93 93.6 53.03C93.6 53.63 93.5 54.13 93.3 54.53C93.1 54.93 92.8 55.33 92.4 55.63C92 55.93 91.5 56.13 91 56.33C90.4 56.53 89.8 56.63 89.1 56.63H86.3V49.73Z" fill="var(--fill-0, white)"/>
<path id="Vector_26" d="M95.9 64.23H95C94.9 64.23 94.8 64.13 94.8 64.03L89.3 57.53L89.1 57.33L89 57.23H86.5V64.23H85.7V49.13H89.3C90.9 49.13 92.1 49.43 93 50.03C93.9 50.63 94.3 51.63 94.3 53.03C94.3 53.63 94.2 54.23 93.9 54.73C93.7 55.23 93.3 55.63 92.9 56.03C92.5 56.43 91.9 56.63 91.3 56.83C90.9 56.93 90.4 57.03 89.9 57.13L95.9 64.23ZM95.1 64.03H95.4L89.7 57.23L89.6 57.13L89.4 56.93H89.7C90.3 56.93 90.8 56.83 91.2 56.63C91.8 56.43 92.3 56.13 92.7 55.83C93.1 55.53 93.4 55.13 93.7 54.63C93.9 54.13 94 53.63 94 53.03C94 51.83 93.6 50.83 92.8 50.23C92 49.63 90.8 49.33 89.3 49.33H85.9V63.93H86.2V56.93H88.9C89 56.93 89.1 56.93 89.2 57.03C89.3 57.03 89.3 57.13 89.4 57.13L89.6 57.33L95.1 63.83C95 63.93 95 64.03 95.1 64.03ZM89.1 56.73H86.2V49.63H89.3C90.7 49.63 91.9 49.93 92.6 50.43C93.4 50.93 93.8 51.83 93.8 53.03C93.8 53.63 93.7 54.13 93.5 54.53C93.3 55.03 93 55.33 92.6 55.73C92.2 56.03 91.7 56.33 91.1 56.43C90.5 56.63 89.8 56.73 89.1 56.73ZM86.5 56.53H89.2C89.9 56.53 90.5 56.43 91.1 56.33C91.6 56.13 92.1 55.93 92.5 55.63C92.9 55.33 93.2 54.93 93.4 54.53C93.6 54.13 93.7 53.63 93.7 53.13C93.7 52.03 93.3 51.23 92.6 50.73C91.9 50.23 90.8 49.93 89.4 49.93H86.5V56.53Z" fill="var(--fill-0, white)"/>
<path id="Vector_27" d="M103.8 49.33L103.4 49.23L97.3 63.93L97.2 64.13H97.6C97.7 64.13 97.8 64.03 97.9 63.93L99.9 59.13H107.4L109.4 63.93C109.4 64.03 109.5 64.13 109.6 64.13H110L103.8 49.33ZM100 58.73L103.5 50.33C103.5 50.33 103.5 50.23 103.6 50.23V50.33L107.1 58.83L100 58.73Z" fill="var(--fill-0, white)"/>
<path id="Vector_28" d="M110.2 64.23H109.6C109.4 64.23 109.3 64.13 109.2 63.93L107.2 59.23H99.9L97.9 63.93C97.9 64.13 97.7 64.23 97.5 64.23H96.9L97.1 63.83L103.3 49.13H103.8L103.9 49.33L110.2 64.23ZM99.8 59.03H107.5V59.13L109.5 63.93C109.5 64.03 109.6 64.03 109.6 64.03H109.8L103.7 49.43H103.5L97.4 64.03H97.6C97.6 64.03 97.7 64.03 97.7 63.93L99.8 59.03ZM107.4 58.83H99.9L103.5 50.13V50.03L103.6 49.83L103.7 50.13V50.23L107.4 58.83ZM100.2 58.53H107L103.6 50.43L100.2 58.53Z" fill="var(--fill-0, white)"/>
</g>
<defs>
<clipPath id="clip0_0_132">
<rect width="128.4" height="128.4" fill="white"/>
</clipPath>
</defs>
</svg>
